<svg width="23" height="23" viewBox="0 0 23 23" fill="none" xmlns="http://www.w3.org/2000/svg">
<path d="M1 5.9287L5.88889 1.03981H16.8889C17.4321 0.904007 18.5185 1.03981 18.5185 2.66944V9.14815C17.7037 8.74074 16.4815 8.74074 16.4815 8.74074V3.07682H7.51852V5.9287C7.65432 6.4719 7.07064 7.5583 6.2963 7.5583H3.13708L3.03704 19.3731H11.1207C11.5281 19.9163 12.2444 21.0444 13.2222 21.3704C13.2222 21.3704 6.2963 21.546 2.62963 21.4102C2.30344 21.3981 1 21.0842 1 19.7805V5.9287Z" fill="#656565"/>
<path d="M1 5.9287L5.88889 1.03981H16.8889C17.4321 0.904007 18.5185 1.03981 18.5185 2.66944M1 5.9287C1 10.0028 1 18.4768 1 19.7805M1 5.9287V19.7805M18.5185 2.66944C18.5185 4.29907 18.5185 7.79013 18.5185 9.14815M18.5185 2.66944V9.14815M18.5185 9.14815C17.7037 8.74074 16.4815 8.74074 16.4815 8.74074M16.4815 8.74074C16.4815 8.70095 16.4815 3.07682 16.4815 3.07682M16.4815 8.74074V3.07682M16.4815 3.07682C15.4229 3.07682 7.51852 3.07682 7.51852 3.07682M16.4815 3.07682H7.51852M7.51852 3.07682V5.9287C7.65432 6.4719 7.07064 7.5583 6.2963 7.5583M6.2963 7.5583C4.99259 7.5583 3.54449 7.5583 3.13708 7.5583M6.2963 7.5583H3.13708M3.13708 7.5583L3.03704 19.3731H11.1207C11.5281 19.9163 12.2444 21.0444 13.2222 21.3704C13.2222 21.3704 6.2963 21.546 2.62963 21.4102C2.30344 21.3981 1 21.0842 1 19.7805" stroke="#656565" stroke-width="0.05"/>
<path d="M9.96301 5.07397H14.8519V6.7036H9.96301V5.07397Z" fill="#656565"/>
<path d="M4.25928 15.6667H9.96298V17.2964H4.25928V15.6667Z" fill="#656565"/>
<path d="M4.25928 12.4075H9.96298V14.0371H4.25928V12.4075Z" fill="#656565"/>
<path d="M4.25928 9.14819H14.0371L12.4074 10.7778H4.25928V9.14819Z" fill="#656565"/>
<path d="M16.0741 8.33325C12.2552 8.33325 9.14819 11.4402 9.14819 15.2592C9.14819 19.0781 12.2552 22.1851 16.0741 22.1851C19.8931 22.1851 23 19.0781 23 15.2592C23 11.4402 19.8931 8.33325 16.0741 8.33325ZM16.0741 20.7999C13.0191 20.7999 10.5334 18.3142 10.5334 15.2592C10.5334 12.2042 13.0191 9.71844 16.0741 9.71844C19.1291 9.71844 21.6149 12.2042 21.6149 15.2592C21.6149 18.3142 19.1291 20.7999 16.0741 20.7999ZM16.7667 12.4888C16.7667 12.8711 16.4564 13.1814 16.0741 13.1814C15.6918 13.1814 15.3815 12.8711 15.3815 12.4888C15.3815 12.1065 15.6918 11.7962 16.0741 11.7962C16.4564 11.7962 16.7667 12.1065 16.7667 12.4888ZM16.7667 15.2592V18.0295C16.7667 18.4126 16.4564 18.7221 16.0741 18.7221C15.6918 18.7221 15.3815 18.4126 15.3815 18.0295V15.2592C15.3815 14.8762 15.6918 14.5666 16.0741 14.5666C16.4564 14.5666 16.7667 14.8762 16.7667 15.2592Z" fill="#656565"/>
</svg>
