<svg width="60" height="87" viewBox="0 0 60 87" fill="none" xmlns="http://www.w3.org/2000/svg">
<path d="M57.8025 21.75L41.25 2.54936C39.8325 0.905059 37.95 0 35.9475 0H18.75C8.41125 0 0 9.75705 0 21.75V65.25C0 77.243 8.41125 87 18.75 87H41.25C51.5887 87 60 77.243 60 65.25V27.9006C60 25.6125 59.2013 23.3682 57.8025 21.75ZM41.25 14.8506L47.1975 21.75H46.875C43.7738 21.75 41.25 18.8225 41.25 15.225V14.8506ZM41.25 78.3H18.75C12.5475 78.3 7.5 72.4449 7.5 65.25V21.75C7.5 14.5551 12.5475 8.7 18.75 8.7H33.75V15.225C33.75 23.6205 39.6375 30.45 46.875 30.45H52.5V65.25C52.5 72.4449 47.4525 78.3 41.25 78.3Z" fill="#4C4C4C"/>
</svg>
