<svg width="18" height="14" viewBox="0 0 18 14" fill="none" xmlns="http://www.w3.org/2000/svg">
<path d="M16.0495 1.17387C15.3255 0.60735 14.363 0.294922 13.3393 0.294922C12.3157 0.294922 11.3531 0.60735 10.6291 1.17387L1.81307 8.07222C1.4406 8.36366 1.19786 8.73242 1.11165 9.13848L0.450446 12.2415C0.383486 12.5558 0.515748 12.8788 0.802837 13.1034C1.04138 13.2901 1.36527 13.3929 1.69756 13.3929C1.76703 13.3929 1.83565 13.3883 1.90512 13.3791L5.87083 12.8617C6.38977 12.7943 6.86099 12.6043 7.23345 12.3129L16.0495 5.41452C16.7735 4.84801 17.1728 4.09416 17.1728 3.29383C17.1728 2.49285 16.7735 1.74038 16.0495 1.17387ZM6.04994 11.3881C5.92607 11.4851 5.76872 11.5486 5.5963 11.5709L2.19642 12.0143L2.76306 9.35394C2.79152 9.21902 2.8727 9.0959 2.99658 8.99897L9.61386 3.82109L12.6672 6.21024L6.04994 11.3881ZM14.866 4.48913L13.8507 5.28349L10.7974 2.89434L11.8127 2.0999C12.2203 1.78095 12.7635 1.60478 13.3393 1.60478C13.916 1.60478 14.4584 1.78095 14.866 2.0999C15.2736 2.41885 15.4988 2.84323 15.4988 3.29447C15.4988 3.74572 15.2736 4.17018 14.866 4.48913Z" fill="#656565"/>
</svg>
