<svg width="22" height="22" viewBox="0 0 22 22" fill="none" xmlns="http://www.w3.org/2000/svg">
<path d="M20.943 13.5653L19.1125 12.5082C19.2973 11.5113 19.2973 10.4887 19.1125 9.49181L20.943 8.43478C21.1536 8.31447 21.2481 8.06525 21.1793 7.83322C20.7024 6.30353 19.8903 4.91994 18.8289 3.76838C18.6657 3.5922 18.3993 3.54923 18.193 3.66955L16.3625 4.72658C15.5934 4.06486 14.7082 3.55353 13.75 3.21838V1.10861C13.75 0.867985 13.5825 0.657438 13.3461 0.605875C11.7692 0.253531 10.1536 0.270719 8.65395 0.605875C8.41762 0.657438 8.25004 0.867985 8.25004 1.10861V3.22267C7.29614 3.56213 6.41098 4.07345 5.63754 4.73088L3.81137 3.67384C3.60082 3.55353 3.33872 3.5922 3.17543 3.77267C2.11411 4.91994 1.302 6.30353 0.825043 7.83752C0.751996 8.06955 0.850824 8.31877 1.06137 8.43908L2.89184 9.49611C2.70707 10.493 2.70707 11.5156 2.89184 12.5125L1.06137 13.5695C0.850824 13.6899 0.756293 13.9391 0.825043 14.1711C1.302 15.7008 2.11411 17.0844 3.17543 18.236C3.33872 18.4121 3.60512 18.4551 3.81137 18.3348L5.64184 17.2778C6.41098 17.9395 7.29614 18.4508 8.25434 18.786V20.9C8.25434 21.1406 8.42192 21.3512 8.65825 21.4028C10.2352 21.7551 11.8508 21.7379 13.3504 21.4028C13.5868 21.3512 13.7543 21.1406 13.7543 20.9V18.786C14.7082 18.4465 15.5934 17.9352 16.3668 17.2778L18.1973 18.3348C18.4079 18.4551 18.67 18.4164 18.8332 18.236C19.8946 17.0887 20.7067 15.7051 21.1836 14.1711C21.2481 13.9348 21.1536 13.6856 20.943 13.5653ZM11 14.4375C9.10512 14.4375 7.56254 12.8949 7.56254 11C7.56254 9.10509 9.10512 7.56252 11 7.56252C12.895 7.56252 14.4375 9.10509 14.4375 11C14.4375 12.8949 12.895 14.4375 11 14.4375Z" fill="#656565"/>
</svg>
