<svg width="20" height="17" viewBox="0 0 20 17" fill="none" xmlns="http://www.w3.org/2000/svg">
<path d="M6.5 0C4.92 0 3.59702 1.059 3.16302 2.5H1C0.448 2.5 0 2.947 0 3.5C0 4.053 0.448 4.5 1 4.5H3.16302C3.59702 5.941 4.92 7 6.5 7C8.43 7 10 5.43 10 3.5C10 1.57 8.43 0 6.5 0ZM6.5 5C5.673 5 5 4.327 5 3.5C5 2.673 5.673 2 6.5 2C7.327 2 8 2.673 8 3.5C8 4.327 7.327 5 6.5 5ZM12 3.5C12 2.947 12.448 2.5 13 2.5H19C19.552 2.5 20 2.947 20 3.5C20 4.053 19.552 4.5 19 4.5H13C12.448 4.5 12 4.053 12 3.5ZM19 12.5H16.837C16.403 11.059 15.08 10 13.5 10C11.57 10 10 11.57 10 13.5C10 15.43 11.57 17 13.5 17C15.08 17 16.403 15.941 16.837 14.5H19C19.552 14.5 20 14.053 20 13.5C20 12.947 19.552 12.5 19 12.5ZM13.5 15C12.673 15 12 14.327 12 13.5C12 12.673 12.673 12 13.5 12C14.327 12 15 12.673 15 13.5C15 14.327 14.327 15 13.5 15ZM8 13.5C8 14.053 7.552 14.5 7 14.5H1C0.448 14.5 0 14.053 0 13.5C0 12.947 0.448 12.5 1 12.5H7C7.552 12.5 8 12.947 8 13.5Z" fill="black"/>
</svg>
