<svg width="19" height="18" viewBox="0 0 19 18" fill="none" xmlns="http://www.w3.org/2000/svg">
<path d="M14.399 14.0148V14.4702C14.399 15.3119 14.0876 16.1177 13.5224 16.7393C13.3442 16.9352 13.1003 17.034 12.8555 17.034C12.6395 17.034 12.4236 16.9567 12.2517 16.8004C11.8836 16.4672 11.8556 15.8994 12.1895 15.532C12.4541 15.2419 12.5999 14.8637 12.5999 14.4694V14.0138C12.5999 12.8963 11.8467 11.9289 10.7676 11.6621C10.6191 11.6244 10.4633 11.6441 10.3382 11.7151C8.66691 12.6314 6.62483 12.6269 4.96793 11.7196C4.83563 11.6442 4.67902 11.6244 4.53232 11.663C3.45322 11.9298 2.6999 12.8973 2.6999 14.0148V14.4702C2.6999 14.8637 2.8457 15.241 3.1103 15.5329C3.4442 15.9003 3.41633 16.4689 3.04823 16.8022C2.67833 17.1346 2.1104 17.1076 1.7765 16.7402C1.2113 16.1177 0.899902 15.3119 0.899902 14.4711V14.0157C0.899902 12.0709 2.21482 10.3865 4.09852 9.91938C4.68622 9.77565 5.32161 9.85839 5.84271 10.1494C6.95511 10.7603 8.33754 10.7648 9.46524 10.1449C9.97914 9.85928 10.6145 9.77475 11.2022 9.91938C13.0841 10.3856 14.399 12.07 14.399 14.0148ZM15.7004 9.9185C15.2189 9.80172 14.7293 10.0919 14.6105 10.5734C14.4917 11.0549 14.7852 11.5427 15.2676 11.6621C16.3467 11.9289 17.0999 12.8963 17.0999 14.0138V14.4694C17.0999 14.8628 16.9541 15.241 16.6895 15.532C16.3556 15.8994 16.3836 16.4672 16.7517 16.8004C16.9236 16.9567 17.1404 17.034 17.3555 17.034C17.6003 17.034 17.8442 16.9352 18.0224 16.7393C18.5876 16.1177 18.899 15.311 18.899 14.4702V14.0148C18.899 12.07 17.5841 10.3856 15.7004 9.9185ZM3.14903 5.35603C3.14903 2.8794 5.16773 0.864502 7.64903 0.864502C10.1303 0.864502 12.149 2.8794 12.149 5.35603C12.149 7.83266 10.1303 9.84755 7.64903 9.84755C5.16773 9.84755 3.14903 7.83266 3.14903 5.35603ZM4.94903 5.35603C4.94903 6.84183 6.16043 8.05094 7.64903 8.05094C9.13764 8.05094 10.349 6.84183 10.349 5.35603C10.349 3.87023 9.13764 2.66111 7.64903 2.66111C6.16043 2.66111 4.94903 3.87023 4.94903 5.35603ZM16.649 5.35603C16.649 3.0941 14.9562 1.17975 12.7107 0.899482C12.2166 0.842889 11.7674 1.18698 11.7062 1.67925C11.645 2.17152 11.9943 2.62064 12.4884 2.68173C13.8348 2.84971 14.8499 3.99869 14.8499 5.35603C14.8499 6.17798 14.4809 6.94517 13.8374 7.4599C13.4495 7.77071 13.3874 8.33566 13.6979 8.72193C13.8752 8.94381 14.1372 9.0588 14.4009 9.0588C14.598 9.0588 14.7969 8.99414 14.9634 8.8612C16.0344 8.00421 16.649 6.72594 16.649 5.35603Z" fill="#656565"/>
</svg>
